<svg width="78" height="19" viewBox="0 0 78 19" fill="none" xmlns="http://www.w3.org/2000/svg">
<path d="M4.76 14.64H13.52V18H0.44V1.2H4.76V14.64ZM20.2456 5.76V18H16.0456V9H14.2456V5.76H20.2456ZM16.0456 0.959999H20.2456V4.32H16.0456V0.959999ZM29.7331 8.52C28.8851 8.52 27.9251 8.68 26.8531 9V18H22.6531V5.28H26.3731L26.6131 6.48C27.3651 5.984 28.1331 5.624 28.9171 5.4C29.7171 5.16 30.3891 5.04 30.9331 5.04H32.0131C33.1011 5.04 33.9731 5.368 34.6291 6.024C35.2851 6.68 35.6131 7.552 35.6131 8.64V18H31.4131V9.36C31.4131 9.12 31.3331 8.92 31.1731 8.76C31.0131 8.6 30.8131 8.52 30.5731 8.52H29.7331ZM50.9703 17.76C47.4023 18.08 44.4423 18.24 42.0903 18.24C40.5223 18.24 39.3703 17.872 38.6343 17.136C37.8983 16.4 37.5303 15.248 37.5303 13.68V6C37.5303 4.32 37.9063 3.104 38.6583 2.352C39.4263 1.584 40.6503 1.2 42.3303 1.2H50.9703V4.56H43.2903C42.3303 4.56 41.8503 5.04 41.8503 6V13.68C41.8503 14.048 41.9543 14.344 42.1623 14.568C42.3863 14.776 42.6663 14.88 43.0023 14.88C43.3383 14.88 43.7063 14.88 44.1063 14.88C44.5063 14.864 44.9223 14.848 45.3543 14.832C45.7863 14.816 46.2183 14.8 46.6503 14.784C47.0983 14.768 47.6663 14.736 48.3543 14.688C49.0583 14.64 49.9303 14.584 50.9703 14.52V17.76ZM65.6131 14.4C65.6131 15.6 65.2691 16.544 64.5811 17.232C63.9091 17.904 62.9731 18.24 61.7731 18.24H56.2531C55.0531 18.24 54.1091 17.904 53.4211 17.232C52.7491 16.544 52.4131 15.6 52.4131 14.4V8.88C52.4131 7.68 52.7491 6.744 53.4211 6.072C54.1091 5.384 55.0531 5.04 56.2531 5.04H61.7731C62.9731 5.04 63.9091 5.384 64.5811 6.072C65.2691 6.744 65.6131 7.68 65.6131 8.88V14.4ZM61.4131 9.24C61.4131 8.6 61.0931 8.28 60.4531 8.28H57.5731C56.9331 8.28 56.6131 8.6 56.6131 9.24V14.04C56.6131 14.68 56.9331 15 57.5731 15H60.4531C61.0931 15 61.4131 14.68 61.4131 14.04V9.24ZM75.0903 8.76C74.0823 8.76 73.0423 9 71.9703 9.48V18H67.7703V5.28H71.4903L71.7303 6.84C73.1063 5.64 74.5463 5.04 76.0503 5.04H77.1303V8.76H75.0903Z" fill="#0550E0"/>
</svg>
